# WaveFront *.obj file (generated by Cheetah3D)

mtllib model_halo_yoshimi.mtl

g Polyplane
v -3.705121 3.741948 0.000000
v -3.705000 3.742001 0.000000
v -3.704893 3.743301 0.000000
v -3.705390 3.741976 0.000000
v -3.705804 3.742084 0.000000
v -3.706363 3.742271 0.000000
v -3.705683 3.746145 0.000000
v -3.709996 3.743791 0.000000
v -3.709866 3.756308 0.000000
v -3.723593 3.750328 0.000000
v -3.728035 3.793459 0.000000
v -3.772750 3.775625 0.000000
v -3.798718 3.926422 0.000000
v -3.932000 3.861000 0.000000
v -4.038500 4.357875 0.000000
v -5.414625 4.710250 0.000000
v -4.600000 5.330000 0.000000
v -5.108250 6.132375 0.000000
v -6.322000 5.312000 0.000000
v -5.294125 6.382578 0.000000
v -6.462179 5.437449 0.000000
v -5.447000 6.550000 0.000000
v -6.599124 5.585844 0.000000
v -5.627703 6.702204 0.000000
v -6.849250 5.929250 0.000000
v -5.835124 6.848876 0.000000
v -6.053234 6.979609 0.000000
v -7.044250 6.297781 0.000000
v -6.266000 7.084000 0.000000
v -7.112289 6.477582 0.000000
v -6.445188 7.150906 0.000000
v -7.156000 6.647000 0.000000
v -6.608250 7.192500 0.000000
v -6.753687 7.208594 0.000000
v -7.167156 6.737735 0.000000
v -7.168000 6.829125 0.000000
v -6.819328 7.207020 0.000000
v -7.159093 6.913203 0.000000
v -6.880000 7.199000 0.000000
v -6.922510 7.187789 0.000000
v -6.963390 7.171000 0.000000
v -7.002045 7.149149 0.000000
v -7.037875 7.122750 0.000000
v -7.070283 7.092320 0.000000
v -7.098672 7.058375 0.000000
v -7.122443 7.021430 0.000000
v -7.141000 6.982000 0.000000
v -7.151160 6.950010 0.000000

vn 0.000000 0.000000 -1.000000

usemtl default
f 3//1 2//1 1//1
f 3//1 1//1 4//1
f 3//1 4//1 5//1
f 3//1 5//1 6//1
f 7//1 3//1 6//1
f 7//1 6//1 8//1
f 9//1 7//1 8//1
f 9//1 8//1 10//1
f 11//1 9//1 10//1
f 11//1 10//1 12//1
f 13//1 11//1 12//1
f 13//1 12//1 14//1
f 15//1 13//1 14//1
f 15//1 14//1 16//1
f 17//1 15//1 16//1
f 18//1 17//1 16//1
f 18//1 16//1 19//1
f 20//1 18//1 19//1
f 20//1 19//1 21//1
f 22//1 20//1 21//1
f 22//1 21//1 23//1
f 24//1 22//1 23//1
f 24//1 23//1 25//1
f 26//1 24//1 25//1
f 27//1 26//1 25//1
f 27//1 25//1 28//1
f 29//1 27//1 28//1
f 29//1 28//1 30//1
f 31//1 29//1 30//1
f 31//1 30//1 32//1
f 33//1 31//1 32//1
f 34//1 33//1 32//1
f 34//1 32//1 35//1
f 34//1 35//1 36//1
f 37//1 34//1 36//1
f 37//1 36//1 38//1
f 39//1 37//1 38//1
f 40//1 39//1 38//1
f 41//1 40//1 38//1
f 42//1 41//1 38//1
f 43//1 42//1 38//1
f 44//1 43//1 38//1
f 45//1 44//1 38//1
f 46//1 45//1 38//1
f 47//1 46//1 38//1
f 48//1 47//1 38//1

g Polyplane.1
v 3.714893 3.743301 0.000000
v 3.715000 3.742001 0.000000
v 3.715121 3.741948 0.000000
v 3.715390 3.741976 0.000000
v 3.715805 3.742084 0.000000
v 3.716363 3.742271 0.000000
v 3.715683 3.746145 0.000000
v 3.719996 3.743791 0.000000
v 3.719866 3.756308 0.000000
v 3.733594 3.750328 0.000000
v 3.738035 3.793459 0.000000
v 3.782750 3.775625 0.000000
v 3.808719 3.926422 0.000000
v 3.942001 3.861000 0.000000
v 4.048500 4.357875 0.000000
v 5.424625 4.710250 0.000000
v 4.610000 5.330000 0.000000
v 5.118250 6.132375 0.000000
v 6.332001 5.312000 0.000000
v 5.304125 6.382578 0.000000
v 6.472180 5.437449 0.000000
v 5.457001 6.550000 0.000000
v 6.609125 5.585844 0.000000
v 5.728063 6.769625 0.000000
v 6.859250 5.929250 0.000000
v 6.034000 6.962250 0.000000
v 7.054250 6.297781 0.000000
v 6.342937 7.110250 0.000000
v 7.122289 6.477582 0.000000
v 6.488570 7.162007 0.000000
v 7.165999 6.647000 0.000000
v 6.623000 7.195999 0.000000
v 7.177281 6.738484 0.000000
v 6.708063 7.205859 0.000000
v 6.799500 7.205875 0.000000
v 7.178250 6.829875 0.000000
v 6.885688 7.196703 0.000000
v 7.169094 6.914328 0.000000
v 7.160778 6.951814 0.000000
v 6.923180 7.188877 0.000000
v 7.150000 6.985000 0.000000
v 7.135756 7.015648 0.000000
v 7.117422 7.045688 0.000000
v 7.095595 7.074508 0.000000
v 7.070875 7.101501 0.000000
v 7.043858 7.126055 0.000000
v 7.015141 7.147563 0.000000
v 6.985322 7.165414 0.000000
v 6.955000 7.179000 0.000000

vn 0.000000 0.000000 -1.000000

usemtl default
f 51//2 50//2 49//2
f 52//2 51//2 49//2
f 53//2 52//2 49//2
f 54//2 53//2 49//2
f 54//2 49//2 55//2
f 56//2 54//2 55//2
f 56//2 55//2 57//2
f 58//2 56//2 57//2
f 58//2 57//2 59//2
f 60//2 58//2 59//2
f 60//2 59//2 61//2
f 62//2 60//2 61//2
f 62//2 61//2 63//2
f 64//2 62//2 63//2
f 64//2 63//2 65//2
f 64//2 65//2 66//2
f 67//2 64//2 66//2
f 67//2 66//2 68//2
f 69//2 67//2 68//2
f 69//2 68//2 70//2
f 71//2 69//2 70//2
f 71//2 70//2 72//2
f 73//2 71//2 72//2
f 73//2 72//2 74//2
f 75//2 73//2 74//2
f 75//2 74//2 76//2
f 77//2 75//2 76//2
f 77//2 76//2 78//2
f 79//2 77//2 78//2
f 79//2 78//2 80//2
f 81//2 79//2 80//2
f 81//2 80//2 82//2
f 81//2 82//2 83//2
f 84//2 81//2 83//2
f 84//2 83//2 85//2
f 86//2 84//2 85//2
f 87//2 86//2 85//2
f 87//2 85//2 88//2
f 89//2 87//2 88//2
f 90//2 89//2 88//2
f 91//2 90//2 88//2
f 92//2 91//2 88//2
f 93//2 92//2 88//2
f 94//2 93//2 88//2
f 95//2 94//2 88//2
f 96//2 95//2 88//2
f 97//2 96//2 88//2

g Polyplane.2
v -4.385000 -0.004999 0.000000
v -4.860000 0.381001 0.000000
v -4.860000 -0.391001 0.000000
v -4.374000 -0.434625 0.000000
v -4.374000 0.424625 0.000000
v -4.744115 -1.132602 0.000000
v -4.323999 -0.790001 0.000000
v -4.151744 -1.446241 0.000000
v -4.519609 -1.835813 0.000000
v -3.885703 -2.057984 0.000000
v -4.194580 -2.490743 0.000000
v -3.534091 -2.617017 0.000000
v -3.777125 -3.087500 0.000000
v -3.105125 -3.115125 0.000000
v -3.275342 -3.616195 0.000000
v -2.607018 -3.544091 0.000000
v -2.697328 -4.066937 0.000000
v -2.047984 -3.895703 0.000000
v -2.051182 -4.429835 0.000000
v -1.436240 -4.161744 0.000000
v -1.345000 -4.695000 0.000000
v -0.780000 -4.334000 0.000000
v -0.868625 -4.805000 0.000000
v -4.773593 0.985657 0.000000
v -4.323999 0.780001 0.000000
v -4.151744 1.436241 0.000000
v -4.612000 1.574751 0.000000
v -4.377656 2.140219 0.000000
v -3.885703 2.047985 0.000000
v -4.073000 2.674000 0.000000
v -3.534091 2.607018 0.000000
v -3.739957 3.122139 0.000000
v -3.105125 3.105125 0.000000
v -3.360718 3.526297 0.000000
v -2.607018 3.534091 0.000000
v -2.940371 3.883463 0.000000
v -2.484000 4.190625 0.000000
v -2.047984 3.885703 0.000000
v -1.996691 4.444771 0.000000
v -1.436240 4.151744 0.000000
v -1.483531 4.642891 0.000000
v -0.780000 4.323999 0.000000
v -0.949605 4.781971 0.000000
v -0.400000 4.859000 0.000000
v -0.325000 4.384001 0.000000
v 0.391000 4.860000 0.000000
v -0.166250 4.387517 0.000000
v 0.091500 4.384376 0.000000
v 0.352250 4.376547 0.000000
v -0.381000 -4.870001 0.000000
v -0.424625 -4.384001 0.000000
v 0.005000 -4.395000 0.000000
v 0.391000 -4.870001 0.000000
v 0.434625 -4.384001 0.000000
v 1.132601 -4.754116 0.000000
v 0.790000 -4.334000 0.000000
v 1.446240 -4.161744 0.000000
v 1.835812 -4.529611 0.000000
v 2.057985 -3.895703 0.000000
v 2.490742 -4.204581 0.000000
v 2.617018 -3.544091 0.000000
v 3.087500 -3.787126 0.000000
v 3.115125 -3.115125 0.000000
v 3.616195 -3.285342 0.000000
v 3.544092 -2.617017 0.000000
v 4.066937 -2.707328 0.000000
v 3.895703 -2.057984 0.000000
v 4.429836 -2.061182 0.000000
v 4.161744 -1.446241 0.000000
v 4.695000 -1.355000 0.000000
v 4.334000 -0.790001 0.000000
v 4.805000 -0.878626 0.000000
v 4.870000 -0.391001 0.000000
v 4.384000 -0.434625 0.000000
v 4.395000 -0.004999 0.000000
v 4.870000 0.381001 0.000000
v 4.384000 0.424625 0.000000
v 4.754115 1.122602 0.000000
v 4.334000 0.780001 0.000000
v 4.174748 1.398833 0.000000
v 4.529610 1.825812 0.000000
v 3.931672 1.979344 0.000000
v 4.204580 2.480742 0.000000
v 3.611416 2.514434 0.000000
v 3.787125 3.077500 0.000000
v 3.220625 2.997000 0.000000
v 3.285342 3.606195 0.000000
v 2.765943 3.419941 0.000000
v 2.707328 4.056937 0.000000
v 2.254015 3.776156 0.000000
v 2.061182 4.419836 0.000000
v 1.691486 4.058543 0.000000
v 1.355000 4.684999 0.000000
v 1.085000 4.260000 0.000000
v 0.878625 4.795000 0.000000
v 0.520000 4.365999 0.000000

vn 0.000000 0.000000 -1.000000

usemtl default
f 100//3 99//3 98//3
f 100//3 98//3 101//3
f 102//3 98//3 99//3
f 103//3 100//3 101//3
f 103//3 101//3 104//3
f 103//3 104//3 105//3
f 106//3 103//3 105//3
f 106//3 105//3 107//3
f 108//3 106//3 107//3
f 108//3 107//3 109//3
f 110//3 108//3 109//3
f 110//3 109//3 111//3
f 112//3 110//3 111//3
f 112//3 111//3 113//3
f 114//3 112//3 113//3
f 114//3 113//3 115//3
f 116//3 114//3 115//3
f 116//3 115//3 117//3
f 118//3 116//3 117//3
f 118//3 117//3 119//3
f 120//3 118//3 119//3
f 102//3 99//3 121//3
f 122//3 102//3 121//3
f 123//3 122//3 121//3
f 123//3 121//3 124//3
f 123//3 124//3 125//3
f 126//3 123//3 125//3
f 126//3 125//3 127//3
f 128//3 126//3 127//3
f 128//3 127//3 129//3
f 130//3 128//3 129//3
f 130//3 129//3 131//3
f 132//3 130//3 131//3
f 132//3 131//3 133//3
f 132//3 133//3 134//3
f 135//3 132//3 134//3
f 135//3 134//3 136//3
f 137//3 135//3 136//3
f 137//3 136//3 138//3
f 139//3 137//3 138//3
f 139//3 138//3 140//3
f 139//3 140//3 141//3
f 142//3 139//3 141//3
f 142//3 141//3 143//3
f 144//3 142//3 143//3
f 145//3 144//3 143//3
f 146//3 145//3 143//3
f 147//3 120//3 119//3
f 147//3 119//3 148//3
f 147//3 148//3 149//3
f 150//3 147//3 149//3
f 150//3 149//3 151//3
f 152//3 150//3 151//3
f 152//3 151//3 153//3
f 152//3 153//3 154//3
f 155//3 152//3 154//3
f 155//3 154//3 156//3
f 157//3 155//3 156//3
f 157//3 156//3 158//3
f 159//3 157//3 158//3
f 159//3 158//3 160//3
f 161//3 159//3 160//3
f 161//3 160//3 162//3
f 163//3 161//3 162//3
f 163//3 162//3 164//3
f 165//3 163//3 164//3
f 165//3 164//3 166//3
f 167//3 165//3 166//3
f 167//3 166//3 168//3
f 169//3 167//3 168//3
f 170//3 169//3 168//3
f 170//3 168//3 171//3
f 170//3 171//3 172//3
f 173//3 170//3 172//3
f 173//3 172//3 174//3
f 175//3 173//3 174//3
f 175//3 174//3 176//3
f 175//3 176//3 177//3
f 178//3 175//3 177//3
f 178//3 177//3 179//3
f 180//3 178//3 179//3
f 180//3 179//3 181//3
f 182//3 180//3 181//3
f 182//3 181//3 183//3
f 184//3 182//3 183//3
f 184//3 183//3 185//3
f 186//3 184//3 185//3
f 186//3 185//3 187//3
f 188//3 186//3 187//3
f 188//3 187//3 189//3
f 190//3 188//3 189//3
f 190//3 189//3 191//3
f 192//3 190//3 191//3
f 192//3 191//3 193//3
f 143//3 192//3 193//3
f 146//3 143//3 193//3

g Polyplane.3
v -2.701000 0.266500 1.000000
v -2.705000 -0.004999 1.000000
v -2.350000 -0.004999 1.000000
v -2.320500 0.391500 1.000000
v -2.682000 0.424000 1.000000
v -2.575719 0.853094 1.000000
v -2.282500 0.576344 1.000000
v -2.228000 0.758001 1.000000
v -2.412250 1.246000 1.000000
v -2.096369 1.069638 1.000000
v -2.190656 1.604406 1.000000
v -1.926453 1.354720 1.000000
v -1.721592 1.610505 1.000000
v -1.910000 1.930000 1.000000
v -1.485125 1.834251 1.000000
v -1.708375 2.115875 1.000000
v -1.482000 2.280001 1.000000
v -1.220392 2.023216 1.000000
v -1.198297 2.445126 1.000000
v -0.930734 2.174657 1.000000
v -0.894625 2.575001 1.000000
v -0.619490 2.285832 1.000000
v -0.575390 2.668125 1.000000
v -0.290000 2.354000 1.000000
v -0.245000 2.723000 1.000000
v -0.153234 2.364844 1.000000
v -0.208094 2.724859 1.000000
v -0.137250 2.725875 1.000000
v 0.017375 2.368751 1.000000
v 0.065000 2.725000 1.000000
v 0.188547 2.365531 1.000000
v 0.307001 2.719000 1.000000
v 0.327001 2.355000 1.000000
v 0.459000 2.701000 1.000000
v 0.597299 2.304109 1.000000
v 0.884078 2.595579 1.000000
v 0.856453 2.224250 1.000000
v 1.275875 2.432126 1.000000
v 1.102600 2.116641 1.000000
v 1.634485 2.210360 1.000000
v 1.333875 1.982500 1.000000
v 1.548416 1.823047 1.000000
v 1.960000 1.930000 1.000000
v 1.744359 1.639500 1.000000
v 2.145875 1.728376 1.000000
v 1.919842 1.433078 1.000000
v 2.310000 1.502001 1.000000
v 2.073000 1.205000 1.000000
v 2.456937 1.254673 1.000000
v 2.216907 0.921859 1.000000
v 2.575000 0.995625 1.000000
v 2.319000 0.627375 1.000000
v 2.666062 0.720265 1.000000
v 2.732001 0.424000 1.000000
v 2.379844 0.319204 1.000000
v 2.751000 0.266500 1.000000
v 2.400000 -0.004999 1.000000
v 2.755000 -0.004999 1.000000
v -2.701000 -0.276500 1.000000
v -2.329844 -0.329203 1.000000
v -2.682000 -0.433998 1.000000
v -2.269000 -0.637375 1.000000
v -2.616062 -0.730264 1.000000
v -2.525000 -1.005624 1.000000
v -2.166906 -0.931859 1.000000
v -2.406937 -1.264671 1.000000
v -2.023000 -1.215000 1.000000
v -2.260000 -1.511999 1.000000
v -1.869842 -1.443079 1.000000
v -2.095875 -1.738375 1.000000
v -1.694359 -1.649501 1.000000
v -1.910000 -1.940001 1.000000
v -1.498416 -1.833047 1.000000
v -1.584406 -2.220656 1.000000
v -1.283875 -1.992500 1.000000
v -1.226000 -2.442249 1.000000
v -1.052599 -2.126641 1.000000
v -0.833093 -2.605718 1.000000
v -0.806453 -2.234250 1.000000
v -0.547299 -2.314109 1.000000
v -0.404000 -2.712000 1.000000
v -0.277000 -2.365000 1.000000
v -0.246500 -2.731000 1.000000
v 0.025000 -2.379999 1.000000
v 0.025000 -2.735001 1.000000
v 0.296500 -2.731000 1.000000
v 0.327001 -2.365000 1.000000
v 0.454000 -2.712000 1.000000
v 0.658977 -2.297855 1.000000
v 0.750266 -2.646062 1.000000
v 1.025625 -2.555000 1.000000
v 0.972438 -2.187469 1.000000
v 1.284672 -2.436937 1.000000
v 1.264055 -2.036535 1.000000
v 1.532001 -2.289999 1.000000
v 1.530500 -1.847750 1.000000
v 1.758376 -2.125875 1.000000
v 1.960000 -1.940001 1.000000
v 1.768445 -1.623808 1.000000
v 2.240656 -1.614407 1.000000
v 1.974563 -1.367406 1.000000
v 2.462250 -1.256000 1.000000
v 2.145524 -1.081238 1.000000
v 2.625719 -0.863093 1.000000
v 2.278000 -0.768000 1.000000
v 2.332500 -0.586344 1.000000
v 2.732001 -0.433998 1.000000
v 2.370500 -0.401500 1.000000
v 2.751000 -0.276500 1.000000

vn 0.000000 0.000000 -1.000000

usemtl default
f 196//4 195//4 194//4
f 197//4 196//4 194//4
f 197//4 194//4 198//4
f 197//4 198//4 199//4
f 200//4 197//4 199//4
f 201//4 200//4 199//4
f 201//4 199//4 202//4
f 203//4 201//4 202//4
f 203//4 202//4 204//4
f 205//4 203//4 204//4
f 206//4 205//4 204//4
f 206//4 204//4 207//4
f 208//4 206//4 207//4
f 208//4 207//4 209//4
f 208//4 209//4 210//4
f 211//4 208//4 210//4
f 211//4 210//4 212//4
f 213//4 211//4 212//4
f 213//4 212//4 214//4
f 215//4 213//4 214//4
f 215//4 214//4 216//4
f 217//4 215//4 216//4
f 217//4 216//4 218//4
f 219//4 217//4 218//4
f 219//4 218//4 220//4
f 219//4 220//4 221//4
f 222//4 219//4 221//4
f 222//4 221//4 223//4
f 224//4 222//4 223//4
f 224//4 223//4 225//4
f 226//4 224//4 225//4
f 226//4 225//4 227//4
f 228//4 226//4 227//4
f 228//4 227//4 229//4
f 230//4 228//4 229//4
f 230//4 229//4 231//4
f 232//4 230//4 231//4
f 232//4 231//4 233//4
f 234//4 232//4 233//4
f 235//4 234//4 233//4
f 235//4 233//4 236//4
f 237//4 235//4 236//4
f 237//4 236//4 238//4
f 239//4 237//4 238//4
f 239//4 238//4 240//4
f 241//4 239//4 240//4
f 241//4 240//4 242//4
f 243//4 241//4 242//4
f 243//4 242//4 244//4
f 245//4 243//4 244//4
f 245//4 244//4 246//4
f 245//4 246//4 247//4
f 248//4 245//4 247//4
f 248//4 247//4 249//4
f 250//4 248//4 249//4
f 250//4 249//4 251//4
f 252//4 195//4 196//4
f 252//4 196//4 253//4
f 254//4 252//4 253//4
f 254//4 253//4 255//4
f 256//4 254//4 255//4
f 257//4 256//4 255//4
f 257//4 255//4 258//4
f 259//4 257//4 258//4
f 259//4 258//4 260//4
f 261//4 259//4 260//4
f 261//4 260//4 262//4
f 263//4 261//4 262//4
f 263//4 262//4 264//4
f 265//4 263//4 264//4
f 265//4 264//4 266//4
f 267//4 265//4 266//4
f 267//4 266//4 268//4
f 269//4 267//4 268//4
f 269//4 268//4 270//4
f 271//4 269//4 270//4
f 271//4 270//4 272//4
f 271//4 272//4 273//4
f 274//4 271//4 273//4
f 274//4 273//4 275//4
f 276//4 274//4 275//4
f 276//4 275//4 277//4
f 278//4 276//4 277//4
f 279//4 278//4 277//4
f 279//4 277//4 280//4
f 281//4 279//4 280//4
f 281//4 280//4 282//4
f 283//4 281//4 282//4
f 284//4 283//4 282//4
f 284//4 282//4 285//4
f 286//4 284//4 285//4
f 286//4 285//4 287//4
f 288//4 286//4 287//4
f 288//4 287//4 289//4
f 290//4 288//4 289//4
f 291//4 290//4 289//4
f 291//4 289//4 292//4
f 293//4 291//4 292//4
f 293//4 292//4 294//4
f 295//4 293//4 294//4
f 295//4 294//4 296//4
f 297//4 295//4 296//4
f 297//4 296//4 298//4
f 297//4 298//4 299//4
f 300//4 297//4 299//4
f 300//4 299//4 301//4
f 250//4 251//4 302//4
f 301//4 250//4 302//4
f 300//4 301//4 302//4

