# WaveFront *.obj file (generated by Cheetah3D)

mtllib model_halo_chise.mtl

g Polyplane
v -2.882658 1.202299 0.000000
v -2.642658 -1.084151 0.000000
v -2.882658 -1.183571 0.000000
v -2.642658 1.102889 0.000000
v -1.195598 2.889369 0.000000
v -1.096189 2.649369 0.000000
v 1.190272 2.889369 0.000000
v 1.090862 2.649369 0.000000
v 2.877342 1.202309 0.000000
v 2.637342 1.102899 0.000000
v 2.877342 -1.183561 0.000000
v 2.637342 -1.084151 0.000000
v 1.190282 -2.870631 0.000000
v 1.090862 -2.630631 0.000000
v -1.195589 -2.870631 0.000000
v -1.096178 -2.630631 0.000000

vn 0.000000 0.000000 1.000000

usemtl default
f 3//1 2//1 1//1
f 2//1 4//1 1//1
f 1//1 4//1 5//1
f 4//1 6//1 5//1
f 5//1 6//1 7//1
f 6//1 8//1 7//1
f 7//1 8//1 9//1
f 8//1 10//1 9//1
f 9//1 10//1 11//1
f 10//1 12//1 11//1
f 11//1 12//1 13//1
f 12//1 14//1 13//1
f 13//1 14//1 15//1
f 14//1 16//1 15//1
f 15//1 16//1 3//1
f 16//1 2//1 3//1

g Polyplane.1
v -2.162658 0.904069 0.000000
v -1.982658 -0.810771 0.000000
v -2.162658 -0.885331 0.000000
v -1.982658 0.829509 0.000000
v -0.897358 -2.150631 0.000000
v -0.822798 -1.970631 0.000000
v 0.892041 -2.150631 0.000000
v 0.817482 -1.970631 0.000000
v 2.157342 -0.885331 0.000000
v 1.977341 -0.810771 0.000000
v 2.157342 0.904069 0.000000
v 1.977341 0.829509 0.000000
v 0.892041 2.169369 0.000000
v 0.817482 1.989369 0.000000
v -0.897358 2.169369 0.000000
v -0.822798 1.989369 0.000000

vn 0.000000 0.000000 1.000000

usemtl default
f 19//2 18//2 17//2
f 18//2 20//2 17//2
f 19//2 21//2 18//2
f 18//2 21//2 22//2
f 21//2 23//2 22//2
f 22//2 23//2 24//2
f 23//2 25//2 24//2
f 24//2 25//2 26//2
f 25//2 27//2 26//2
f 26//2 27//2 28//2
f 27//2 29//2 28//2
f 28//2 29//2 30//2
f 29//2 31//2 30//2
f 30//2 31//2 32//2
f 31//2 17//2 32//2
f 17//2 20//2 32//2

g Polyplane.2
v -0.182658 1.209369 0.000000
v -0.002658 0.849369 0.000000
v -0.362658 1.329369 0.000000
v -0.002658 0.969369 0.000000
v 0.357342 1.329369 0.000000
v 0.177342 1.209369 0.000000
v -0.002658 1.449369 0.000000
v -0.002658 1.809369 0.000000

vn 0.000000 0.000000 1.000000

usemtl default
f 35//3 34//3 33//3
f 33//3 34//3 36//3
f 34//3 37//3 36//3
f 36//3 37//3 38//3
f 33//3 39//3 35//3
f 35//3 39//3 40//3
f 40//3 39//3 37//3
f 39//3 38//3 37//3

g Polyplane.3
v -0.011088 -0.830631 0.000000
v -0.184778 -1.193721 0.000000
v -0.362658 -1.316841 0.000000
v -0.008998 -0.950611 0.000000
v 0.357232 -1.304271 0.000000
v 0.175162 -1.187431 0.000000
v -0.000618 -1.430541 0.000000
v 0.005661 -1.790481 0.000000

vn 0.000000 0.000000 1.000000

usemtl default
f 43//4 42//4 41//4
f 42//4 44//4 41//4
f 41//4 44//4 45//4
f 44//4 46//4 45//4
f 46//4 47//4 45//4
f 45//4 47//4 48//4
f 48//4 47//4 43//4
f 47//4 42//4 43//4

g Polyplane.4
v -1.322588 0.369439 0.000000
v -1.442588 0.009439 0.000000
v -1.802588 0.009439 0.000000
v -1.202588 0.189439 0.000000
v -0.842588 0.009439 0.000000
v -0.962588 0.009439 0.000000
v -1.322588 -0.350561 0.000000
v -1.202588 -0.170561 0.000000

vn 0.000000 0.000000 1.000000

usemtl default
f 51//5 50//5 49//5
f 50//5 52//5 49//5
f 49//5 52//5 53//5
f 52//5 54//5 53//5
f 51//5 55//5 50//5
f 50//5 55//5 56//5
f 55//5 53//5 56//5
f 53//5 54//5 56//5

g Polyplane.5
v 1.311062 0.369329 0.000000
v 0.957392 0.003109 0.000000
v 0.837412 0.001009 0.000000
v 1.194222 0.187269 0.000000
v 1.323622 -0.350561 0.000000
v 1.200502 -0.172681 0.000000
v 1.437321 0.011479 0.000000
v 1.797271 0.017769 0.000000

vn 0.000000 0.000000 1.000000

usemtl default
f 59//6 58//6 57//6
f 58//6 60//6 57//6
f 59//6 61//6 58//6
f 58//6 61//6 62//6
f 60//6 63//6 57//6
f 57//6 63//6 64//6
f 64//6 63//6 61//6
f 63//6 62//6 61//6

