# WaveFront *.obj file (generated by Cheetah3D)

mtllib model_halo_michiru.mtl

g Polyplane
v -0.432794 0.712860 0.000000
v -0.231585 0.020939 0.000000
v -0.232824 -0.003599 0.000000
v -0.227948 0.044770 0.000000
v -0.222034 0.067770 0.000000
v -0.213964 0.089820 0.000000
v -0.203858 0.110800 0.000000
v 0.532234 -2.139564 0.000000
v 0.565862 -1.922921 0.000000
v 0.687186 -2.160349 0.000000
v -0.191836 0.130588 0.000000
v 2.146525 0.555322 0.000000
v 1.923255 0.555076 0.000000
v 2.160685 0.676401 0.000000
v -2.150014 -0.646689 0.000000
v -1.915394 -0.562285 0.000000
v -2.152824 -0.683609 0.000000
v -2.129940 -0.523498 0.000000
v -0.178020 0.149063 0.000000
v -0.162530 0.166107 0.000000
v 2.120980 0.438441 0.000000
v -0.145487 0.181597 0.000000
v -0.635904 2.150341 0.000000
v -0.672824 2.153151 0.000000
v -0.672824 2.153161 0.000000
v -0.551500 1.915722 0.000000
v -0.484404 2.124237 0.000000
v 0.385037 -2.101133 0.000000
v -2.099293 -0.405581 0.000000
v -0.127011 0.195413 0.000000
v -0.340628 2.081784 0.000000
v -0.107223 0.207434 0.000000
v 2.084739 0.325972 0.000000
v -0.086243 0.217540 0.000000
v -0.664643 0.685433 0.000000
v 1.664239 0.468752 0.000000
v 2.038492 0.218131 0.000000
v 1.982929 0.115133 0.000000
v 1.918740 0.017193 0.000000
v -2.058669 -0.293033 0.000000
v -1.656378 -0.475961 0.000000
v -2.008662 -0.185946 0.000000
v -1.949869 -0.084415 0.000000
v -0.064193 0.225611 0.000000
v -0.465175 1.656709 0.000000
v -0.204820 2.024169 0.000000
v -0.077222 1.952579 0.000000
v 0.041921 1.868201 0.000000
v -0.413083 1.384375 0.000000
v 0.152366 1.772221 0.000000
v 0.253869 1.665826 0.000000
v -1.882884 0.011466 0.000000
v -1.384040 -0.423868 0.000000
v -1.726720 0.185906 0.000000
v -1.544933 0.336622 0.000000
v -1.106644 -0.405240 0.000000
v -1.342285 0.462867 0.000000
v -1.123538 0.563890 0.000000
v -0.907590 -0.415568 0.000000
v -0.893454 0.638940 0.000000
v -0.710404 -0.444009 0.000000
v -0.231585 -0.028138 0.000000
v -0.227948 -0.051968 0.000000
v -0.222034 -0.074969 0.000000
v -0.213964 -0.097019 0.000000
v -0.203858 -0.117998 0.000000
v -0.191836 -0.137786 0.000000
v -0.178020 -0.156262 0.000000
v -0.162530 -0.173306 0.000000
v 0.245865 -2.046367 0.000000
v 0.479537 -1.663908 0.000000
v 0.114987 -1.976576 0.000000
v -0.007326 -1.893069 0.000000
v 0.427444 -1.391574 0.000000
v -0.120806 -1.797158 0.000000
v -0.225182 -1.690151 0.000000
v -0.320185 -1.573361 0.000000
v 0.408815 -1.114180 0.000000
v -0.480992 -1.315666 0.000000
v -0.601070 -1.034555 0.000000
v 0.418999 -0.916736 0.000000
v -0.678260 -0.740509 0.000000
v 0.446935 -0.721099 0.000000
v 0.346186 1.550204 0.000000
v -0.394454 1.106980 0.000000
v 0.502289 1.296025 0.000000
v 0.618724 1.019180 0.000000
v -0.404688 0.909005 0.000000
v 0.693543 0.729163 0.000000
v -0.041193 0.231525 0.000000
v -0.017363 0.235161 0.000000
v 0.007176 0.236400 0.000000
v 0.031715 0.235161 0.000000
v 0.055545 0.231525 0.000000
v 0.078545 0.225611 0.000000
v 0.724796 0.435471 0.000000
v 0.100595 0.217540 0.000000
v 0.121575 0.207434 0.000000
v 0.141363 0.195413 0.000000
v 0.159839 0.181597 0.000000
v 0.176882 0.166107 0.000000
v 0.192372 0.149063 0.000000
v 0.206188 0.130588 0.000000
v 0.218210 0.110800 0.000000
v 0.228316 0.089820 0.000000
v 0.236386 0.067770 0.000000
v 1.391902 0.416659 0.000000
v 1.767241 -0.162652 0.000000
v 1.589514 -0.319681 0.000000
v 1.114506 0.398031 0.000000
v 1.391079 -0.452171 0.000000
v 1.177453 -0.558402 0.000000
v 0.918778 0.408069 0.000000
v 0.954156 -0.636649 0.000000
v 0.242300 0.044770 0.000000
v 0.245937 0.020939 0.000000
v 0.247176 -0.003599 0.000000
v 0.245937 -0.028138 0.000000
v 0.702548 -0.690942 0.000000
v 0.242300 -0.051968 0.000000
v 0.236386 -0.074969 0.000000
v 0.228316 -0.097019 0.000000
v 0.218210 -0.117998 0.000000
v 0.206188 -0.137786 0.000000
v 0.192372 -0.156262 0.000000
v 0.176882 -0.173306 0.000000
v 0.159839 -0.188796 0.000000
v 0.141363 -0.202612 0.000000
v 0.121575 -0.214633 0.000000
v 0.100595 -0.224739 0.000000
v 0.078545 -0.232810 0.000000
v 0.055545 -0.238724 0.000000
v 0.031715 -0.242360 0.000000
v 0.007176 -0.243599 0.000000
v -0.017363 -0.242360 0.000000
v -0.041193 -0.238724 0.000000
v -0.064193 -0.232810 0.000000
v -0.086243 -0.224739 0.000000
v -0.107223 -0.214633 0.000000
v -0.127011 -0.202612 0.000000
v -0.145487 -0.188796 0.000000

vn 0.000000 0.000000 1.000000

usemtl default
f 3//1 2//1 1//1
f 2//1 4//1 1//1
f 4//1 5//1 1//1
f 5//1 6//1 1//1
f 6//1 7//1 1//1
f 10//1 9//1 8//1
f 7//1 11//1 1//1
f 14//1 13//1 12//1
f 17//1 16//1 15//1
f 15//1 16//1 18//1
f 11//1 19//1 1//1
f 19//1 20//1 1//1
f 12//1 13//1 21//1
f 20//1 22//1 1//1
f 25//1 24//1 23//1
f 24//1 26//1 23//1
f 23//1 26//1 27//1
f 8//1 9//1 28//1
f 18//1 16//1 29//1
f 22//1 30//1 1//1
f 27//1 26//1 31//1
f 30//1 32//1 1//1
f 21//1 13//1 33//1
f 32//1 34//1 1//1
f 1//1 35//1 3//1
f 13//1 36//1 33//1
f 33//1 36//1 37//1
f 37//1 36//1 38//1
f 38//1 36//1 39//1
f 29//1 16//1 40//1
f 16//1 41//1 40//1
f 40//1 41//1 42//1
f 42//1 41//1 43//1
f 34//1 44//1 1//1
f 26//1 45//1 31//1
f 31//1 45//1 46//1
f 46//1 45//1 47//1
f 47//1 45//1 48//1
f 45//1 49//1 48//1
f 48//1 49//1 50//1
f 50//1 49//1 51//1
f 43//1 41//1 52//1
f 41//1 53//1 52//1
f 52//1 53//1 54//1
f 54//1 53//1 55//1
f 53//1 56//1 55//1
f 55//1 56//1 57//1
f 57//1 56//1 58//1
f 56//1 59//1 58//1
f 58//1 59//1 60//1
f 59//1 61//1 60//1
f 60//1 61//1 35//1
f 35//1 61//1 3//1
f 3//1 61//1 62//1
f 62//1 61//1 63//1
f 63//1 61//1 64//1
f 64//1 61//1 65//1
f 65//1 61//1 66//1
f 66//1 61//1 67//1
f 67//1 61//1 68//1
f 68//1 61//1 69//1
f 28//1 9//1 70//1
f 9//1 71//1 70//1
f 70//1 71//1 72//1
f 72//1 71//1 73//1
f 71//1 74//1 73//1
f 73//1 74//1 75//1
f 75//1 74//1 76//1
f 76//1 74//1 77//1
f 74//1 78//1 77//1
f 77//1 78//1 79//1
f 79//1 78//1 80//1
f 78//1 81//1 80//1
f 80//1 81//1 82//1
f 81//1 83//1 82//1
f 82//1 83//1 61//1
f 51//1 49//1 84//1
f 49//1 85//1 84//1
f 84//1 85//1 86//1
f 86//1 85//1 87//1
f 85//1 88//1 87//1
f 87//1 88//1 89//1
f 88//1 1//1 89//1
f 1//1 44//1 89//1
f 44//1 90//1 89//1
f 90//1 91//1 89//1
f 91//1 92//1 89//1
f 92//1 93//1 89//1
f 93//1 94//1 89//1
f 94//1 95//1 89//1
f 89//1 95//1 96//1
f 95//1 97//1 96//1
f 97//1 98//1 96//1
f 98//1 99//1 96//1
f 99//1 100//1 96//1
f 100//1 101//1 96//1
f 101//1 102//1 96//1
f 102//1 103//1 96//1
f 103//1 104//1 96//1
f 104//1 105//1 96//1
f 105//1 106//1 96//1
f 36//1 107//1 39//1
f 39//1 107//1 108//1
f 108//1 107//1 109//1
f 107//1 110//1 109//1
f 109//1 110//1 111//1
f 111//1 110//1 112//1
f 110//1 113//1 112//1
f 112//1 113//1 114//1
f 113//1 96//1 114//1
f 96//1 106//1 114//1
f 106//1 115//1 114//1
f 115//1 116//1 114//1
f 116//1 117//1 114//1
f 117//1 118//1 114//1
f 114//1 118//1 119//1
f 118//1 120//1 119//1
f 120//1 121//1 119//1
f 121//1 122//1 119//1
f 119//1 122//1 83//1
f 122//1 123//1 83//1
f 123//1 124//1 83//1
f 124//1 125//1 83//1
f 125//1 126//1 83//1
f 126//1 127//1 83//1
f 127//1 128//1 83//1
f 128//1 129//1 83//1
f 129//1 130//1 83//1
f 130//1 131//1 83//1
f 83//1 131//1 61//1
f 131//1 132//1 61//1
f 132//1 133//1 61//1
f 133//1 134//1 61//1
f 134//1 135//1 61//1
f 135//1 136//1 61//1
f 136//1 137//1 61//1
f 137//1 138//1 61//1
f 138//1 139//1 61//1
f 139//1 140//1 61//1
f 140//1 141//1 61//1
f 141//1 69//1 61//1

